HIERARCHY
ROOT Hips
{
    OFFSET 0.000000 0.000000 0.000000
    CHANNELS 6 Xposition Yposition Zposition Zrotation Xrotation Yrotation
    JOINT Spine
    {
        OFFSET -0.000000 7.236184 0.000000
        CHANNELS 3 Zrotation Xrotation Yrotation
        JOINT Spine1
        {
            OFFSET -0.000000 20.420147 0.000000
            CHANNELS 3 Zrotation Xrotation Yrotation
            JOINT Neck
            {
                OFFSET -0.000000 20.336288 1.848754
                CHANNELS 3 Zrotation Xrotation Yrotation
                JOINT Head
                {
                    OFFSET -0.000000 12.354461 -1.764923
                    CHANNELS 3 Zrotation Xrotation Yrotation
                    End Site
                    {
                        OFFSET -0.000000 22.061537 0.000000
                    }
                }
            }
            JOINT LeftShoulder
            {
                OFFSET 3.573296 18.396038 -0.314103
                CHANNELS 3 Zrotation Xrotation Yrotation
                JOINT LeftArm
                {
                    OFFSET 10.880760 0.000000 0.000000
                    CHANNELS 3 Zrotation Xrotation Yrotation
                    JOINT LeftForeArm
                    {
                        OFFSET 27.185530 0.000000 0.000000
                        CHANNELS 3 Zrotation Xrotation Yrotation
                        JOINT LeftHand
                        {
                            OFFSET 27.825975 0.000000 0.000000
                            CHANNELS 3 Zrotation Xrotation Yrotation
                            End Site
                            {
                                OFFSET 13.236923 0.000000 0.000000
                            }
                        }
                    }
                }
            }
            JOINT RightShoulder
            {
                OFFSET -3.474926 18.396038 -0.314103
                CHANNELS 3 Zrotation Xrotation Yrotation
                JOINT RightArm
                {
                    OFFSET -10.880760 0.000000 0.000000
                    CHANNELS 3 Zrotation Xrotation Yrotation
                    JOINT RightForeArm
                    {
                        OFFSET -27.185530 0.000000 0.000000
                        CHANNELS 3 Zrotation Xrotation Yrotation
                        JOINT RightHand
                        {
                            OFFSET -27.825975 0.000000 0.000000
                            CHANNELS 3 Zrotation Xrotation Yrotation
                            End Site
                            {
                                OFFSET -13.236923 0.000000 0.000000
                            }
                        }
                    }
                }
            }
        }
    }
    JOINT LeftUpLeg
    {
        OFFSET 8.824615 0.000000 0.000000
        CHANNELS 3 Zrotation Xrotation Yrotation
        JOINT LeftLeg
        {
            OFFSET -0.000000 -35.111282 0.000000
            CHANNELS 3 Zrotation Xrotation Yrotation
            JOINT LeftFoot
            {
                OFFSET -0.000000 -42.324711 0.000000
                CHANNELS 3 Zrotation Xrotation Yrotation
                JOINT LeftToeBase
                {
                    OFFSET -0.000000 -5.735999 13.236923
                    CHANNELS 3 Zrotation Xrotation Yrotation
                    End Site
                    {
                        OFFSET -0.000000 0.000000 3.529846
                    }
                }
            }
        }
    }
    JOINT RightUpLeg
    {
        OFFSET -8.824615 0.000000 0.000000
        CHANNELS 3 Zrotation Xrotation Yrotation
        JOINT RightLeg
        {
            OFFSET -0.000000 -35.111282 0.000000
            CHANNELS 3 Zrotation Xrotation Yrotation
            JOINT RightFoot
            {
                OFFSET -0.000000 -42.324711 0.000000
                CHANNELS 3 Zrotation Xrotation Yrotation
                JOINT RightToeBase
                {
                    OFFSET -0.000000 -5.735999 13.236923
                    CHANNELS 3 Zrotation Xrotation Yrotation
                    End Site
                    {
                        OFFSET -0.000000 0.000000 3.529846
                    }
                }
            }
        }
    }
}
MOTION
Frames:    11
Frame Time:    0.008333
-5.000851    80.411728    100.764534    -0.137639    -6.531185    -171.446747    -1.670862    -9.216286    1.185377    0.252338    6.157555    1.306509    1.907541    7.325383    -5.330211    7.911244    -3.833961    -4.319185    0.229727    17.272261    -0.473847    -49.613899    41.628468    -37.156563    0.280482    -5.812045    -14.918410    18.133898    -5.352876    2.660372    7.163738    18.828777    -5.830258    38.640572    45.302971    40.632263    -2.769426    -8.095285    21.295111    -7.999087    -7.311076    -3.868582    -0.414526    -13.996853    -6.895535    0.657773    22.245644    -3.721145    -2.171735    -12.997433    -7.015304    -1.111163    -0.787097    1.233435    -4.196202    -4.022120    3.823018    3.648503    9.402220    3.504402    -0.419379    -8.887976    -13.789921    -0.478619    -0.024624    0.517681    
-5.021664    80.407349    100.749298    -0.143688    -6.526631    -171.375061    -1.681419    -9.249578    1.220058    0.307298    6.236310    1.339369    1.842092    7.277122    -5.385831    7.954356    -3.865268    -4.362854    0.158737    17.252607    -0.536327    -49.632389    41.557903    -37.048138    0.275385    -5.800344    -14.905007    18.135559    -5.340093    2.671376    7.142142    18.773682    -5.884832    38.674000    45.295971    40.564377    -2.792286    -8.104974    21.337116    -7.947902    -7.314945    -3.900829    -0.455062    -14.008617    -6.938696    0.670415    22.288158    -3.761566    -2.003629    -13.035528    -6.960195    -1.056591    -0.740745    1.172761    -4.218927    -4.021037    3.769238    3.651355    9.470718    3.597299    -0.433381    -8.934228    -13.902935    -0.474808    -0.033981    0.513566    
-5.042463    80.402878    100.734306    -0.149443    -6.521914    -171.303513    -1.690693    -9.279889    1.253139    0.358617    6.309516    1.370633    1.781095    7.232263    -5.439565    7.995219    -3.897037    -4.405140    0.091665    17.236479    -0.594889    -49.651794    41.487663    -36.942997    0.270063    -5.788273    -14.890611    18.136896    -5.327097    2.681436    7.121996    18.722315    -5.936225    38.705036    45.289860    40.496632    -2.815486    -8.115228    21.380608    -7.899344    -7.319230    -3.933342    -0.495372    -14.021361    -6.980962    0.683313    22.332500    -3.802116    -1.842917    -13.073175    -6.907333    -1.004527    -0.700062    1.114890    -4.241207    -4.021152    3.716828    3.654332    9.541363    3.689209    -0.448112    -8.980956    -14.016331    -0.470745    -0.043617    0.509177    
-5.063131    80.398285    100.719849    -0.154621    -6.517014    -171.232574    -1.697688    -9.304890    1.283247    0.403307    6.372694    1.399020    1.727929    7.193503    -5.489664    8.032579    -3.929717    -4.444712    0.032004    17.226551    -0.646195    -49.673187    41.418480    -36.844265    0.264216    -5.775453    -14.874322    18.137629    -5.313743    2.689698    7.104314    18.677185    -5.981912    38.732403    45.285892    40.429005    -2.839478    -8.126456    21.426350    -7.855907    -7.324077    -3.965969    -0.534883    -14.036200    -7.021640    0.696040    22.380188    -3.842810    -1.694952    -13.110199    -6.857997    -0.956879    -0.668446    1.061947    -4.262401    -4.023818    3.666825    3.657179    9.615847    3.777364    -0.463193    -9.028399    -14.127850    -0.466144    -0.053927    0.504208    
-5.083752    80.393471    100.706078    -0.159008    -6.511862    -171.162079    -1.701926    -9.323513    1.309903    0.440305    6.424232    1.424024    1.684202    7.161712    -5.535468    8.065697    -3.963808    -4.481081    -0.019514    17.223312    -0.689564    -49.697319    41.350357    -36.751766    0.257804    -5.761755    -14.855748    18.136705    -5.299978    2.695665    7.089946    18.639397    -6.020952    38.755009    45.284420    40.360882    -2.864995    -8.138897    21.475365    -7.819195    -7.329502    -3.999038    -0.573484    -14.054180    -7.060080    0.708689    22.432987    -3.884510    -1.561371    -13.146938    -6.812390    -0.914212    -0.646752    1.014554    -4.282407    -4.030154    3.620234    3.660317    9.695807    3.858372    -0.478506    -9.076803    -14.235333    -0.460882    -0.064861    0.498524    
-5.104285    80.388382    100.693192    -0.162356    -6.506468    -171.092239    -1.703246    -9.335434    1.332774    0.469429    6.463984    1.445385    1.650363    7.136593    -5.576557    8.094659    -3.999331    -4.513865    -0.062636    17.226572    -0.724887    -49.724678    41.283066    -36.665680    0.250673    -5.747060    -14.834394    18.132788    -5.285893    2.698417    7.079243    18.608866    -6.053226    38.772602    45.285950    40.291901    -2.892597    -8.152528    21.527943    -7.790848    -7.335324    -4.032485    -0.610723    -14.076365    -7.095536    0.720970    22.492521    -3.927376    -1.442843    -13.183802    -6.770837    -0.876533    -0.635910    0.972722    -4.300796    -4.041385    3.577471    3.663635    9.782719    3.925850    -0.492817    -9.126320    -14.332518    -0.454812    -0.077110    0.491967    
-5.124913    80.382881    100.681221    -0.164436    -6.500798    -171.022461    -1.701833    -9.340912    1.352134    0.491715    6.493116    1.463279    1.625948    7.117120    -5.613305    8.119980    -4.036840    -4.543315    -0.098333    17.235188    -0.753095    -49.755100    41.216770    -36.584908    0.242943    -5.731661    -14.810048    18.124567    -5.271813    2.697967    7.072047    18.585056    -6.079991    38.784912    45.290627    40.221626    -2.923202    -8.167413    21.584974    -7.772117    -7.341320    -4.066900    -0.646587    -14.103903    -7.127197    0.733050    22.560671    -3.972782    -1.337751    -13.221518    -6.732756    -0.843323    -0.633984    0.935864    -4.317561    -4.058798    3.538582    3.667461    9.878841    3.975390    -0.505638    -9.177456    -14.415681    -0.447819    -0.090851    0.484411    
-5.145454    80.376968    100.670448    -0.165066    -6.494952    -170.953491    -1.698038    -9.340213    1.367864    0.507990    6.512663    1.477712    1.610649    7.102663    -5.645469    8.142076    -4.076894    -4.569058    -0.127399    17.247816    -0.775354    -49.788731    41.151096    -36.508698    0.234280    -5.715556    -14.782640    18.111696    -5.257812    2.693977    7.068853    18.567274    -6.102009    38.791565    45.298126    40.150047    -2.956912    -8.183167    21.646343    -7.764505    -7.347014    -4.101985    -0.680208    -14.137616    -7.153872    0.744133    22.638319    -4.020867    -1.245846    -13.260135    -6.698076    -0.814104    -0.639760    0.903449    -4.332374    -4.083560    3.504084    3.671846    9.985138    4.004820    -0.516039    -9.230008    -14.482330    -0.439821    -0.106453    0.475770    
-5.166125    80.370499    100.660873    -0.164009    -6.488897    -170.884537    -1.692290    -9.333886    1.380431    0.519902    6.524707    1.488954    1.603359    7.091050    -5.673706    8.162090    -4.119665    -4.591516    -0.151263    17.263069    -0.792971    -49.825439    41.085423    -36.435665    0.224744    -5.698851    -14.751906    18.093983    -5.243951    2.686757    7.069017    18.553820    -6.121078    38.793053    45.308941    40.076153    -2.994717    -8.200004    21.713156    -7.768997    -7.352283    -4.138471    -0.711361    -14.178681    -7.174571    0.753914    22.727339    -4.072765    -1.164674    -13.300377    -6.666278    -0.787732    -0.651025    0.874201    -4.345298    -4.117349    3.473514    3.677055    10.105684    4.018707    -0.525268    -9.285524    -14.537506    -0.430585    -0.124409    0.465791    
-5.186639    80.363495    100.652756    -0.161167    -6.483003    -170.816772    -1.685383    -9.323019    1.389960    0.528803    6.531200    1.497210    1.603638    7.080966    -5.697978    8.180451    -4.165524    -4.610514    -0.170950    17.279106    -0.807388    -49.864803    41.019829    -36.365318    0.214072    -5.681489    -14.718110    18.072655    -5.230093    2.676917    7.073009    18.543888    -6.139185    38.788013    45.323120    40.001633    -3.036777    -8.217926    21.784864    -7.786720    -7.357102    -4.176021    -0.738977    -14.227517    -7.187835    0.761395    22.827372    -4.127101    -1.094308    -13.341856    -6.638545    -0.763519    -0.665465    0.847353    -4.356112    -4.161637    3.446715    3.683007    10.242175    4.023968    -0.532881    -9.344355    -14.586676    -0.419989    -0.145658    0.454342    
-5.207015    80.355919    100.646233    -0.156306    -6.477338    -170.750198    -1.678071    -9.308108    1.396821    0.536682    6.534279    1.502854    1.610278    7.069852    -5.718764    8.198431    -4.214516    -4.626277    -0.187581    17.294365    -0.819968    -49.906029    40.954147    -36.297009    0.201955    -5.663262    -14.681416    18.049776    -5.215728    2.666169    7.079838    18.535521    -6.158400    38.777054    45.341408    39.926117    -3.083798    -8.237367    21.862167    -7.818377    -7.361712    -4.214469    -0.762049    -14.284858    -7.192672    0.765166    22.939013    -4.182711    -1.033307    -13.384513    -6.615685    -0.740274    -0.679780    0.821576    -4.364652    -4.218676    3.422920    3.689659    10.399155    4.028757    -0.539968    -9.407907    -14.637331    -0.407760    -0.170609    0.441128    
